<?xml version="1.0" encoding="utf-8"?>
<svg version="1.1" id="Layer_1" xmlns="http://www.w3.org/2000/svg" xmlns:xlink="http://www.w3.org/1999/xlink"
	viewBox="0 0 182.4 183.4" fill="currentColor">
	<path class="st0" d="M9.7,50.3C24.9,20.5,55.8,0,91.4,0c35.7,0,66.7,20.5,81.7,50.3h-43.5c-5.5,0-9.9,1.6-12.6,5.3
	c-0.9-2.7-2.4-5.3-5.9-5.3H9.7z" />
	<path class="st0" d="M46.4,171.7c5.7,3.1,11.7,5.8,18.1,7.7l0.2-0.4c12.4-21,33.1-56.1,50.8-86.1c4.9-8.2,10.4-11.3,19-11.3h47.9
	c-0.7-6.9-2.4-13.5-4.6-19.9h-49.2c-6,0-12.1,3.1-15.7,8.2c-0.4-2-0.9-3.1-1.5-4.4c-1.3-2.2-2.6-3.8-6-3.8H5.1
	c-2.2,6.4-3.8,13-4.6,19.9h85.6c8.6,0,5.8,11.7,1.5,19.2C73.9,124.3,60,148.1,46.4,171.7" />
	<path class="st0"
		d="M0,94.4c0.7,29.1,14.8,54.3,36.4,70.6h0.2c13.5-23.6,24.5-42.8,38.2-66.4c1.3-2.2,0.7-4-1.6-4L0,94.4z" />
	<path class="st0" d="M183.2,94.5c-1.5,49.2-42.1,88.9-91.6,88.9c-5.1,0-10.1-0.6-14.8-1.3v-0.2c12.6-21.8,29.8-50.8,46.3-78.6
	c3.7-6.4,6.4-8.8,12.6-8.8C135.7,94.5,183.2,94.5,183.2,94.5z" />
</svg>